<?xml version="1.0" encoding="UTF-8"?>
<svg width="120" height="40" viewBox="0 0 120 40" fill="none" xmlns="http://www.w3.org/2000/svg">
  <!-- Background circle -->
  <circle cx="20" cy="20" r="18" fill="#003580" opacity="0.1"/>
  
  <!-- Heart icon -->
  <path d="M20 28c-0.5 0-1-0.2-1.4-0.6C16.1 25 12 20.4 12 16c0-3.3 2.7-6 6-6 1.6 0 3.1 0.6 4.2 1.8C23.3 10.6 24.8 10 26.4 10c3.3 0 6 2.7 6 6 0 4.4-4.1 9-6.6 11.4-0.4 0.4-0.9 0.6-1.4 0.6H20z" fill="#003580"/>
  
  <!-- Text -->
  <text x="45" y="16" font-family="Arial, sans-serif" font-size="14" font-weight="bold" fill="#003580">QuyTuThien</text>
  <text x="45" y="28" font-family="Arial, sans-serif" font-size="8" fill="#666">Blockchain Charity</text>
  
  <!-- Blockchain elements -->
  <rect x="100" y="12" width="4" height="4" fill="#003580" opacity="0.3"/>
  <rect x="106" y="12" width="4" height="4" fill="#003580" opacity="0.5"/>
  <rect x="112" y="12" width="4" height="4" fill="#003580" opacity="0.7"/>
  <rect x="100" y="20" width="4" height="4" fill="#003580" opacity="0.5"/>
  <rect x="106" y="20" width="4" height="4" fill="#003580" opacity="0.7"/>
  <rect x="112" y="20" width="4" height="4" fill="#003580"/>
</svg>
